<?xml version="1.0" standalone="no"?>
<!DOCTYPE svg PUBLIC "-//W3C//DTD SVG 1.1//EN" "http://www.w3.org/Graphics/SVG/1.1/DTD/svg11.dtd" >
<svg xmlns="http://www.w3.org/2000/svg" xmlns:xlink="http://www.w3.org/1999/xlink" version="1.1">
<metadata>
Created by FontForge 20170731 at Mon Sep 25 11:29:19 2017
 By Aleksey,,,
Copyright (c) 2013 by AndrijType. All rights reserved.
</metadata>
<defs>
<font id="OnePlusOne2015-Regular" horiz-adv-x="1064" >
  <font-face
    font-family="OnePlusOne 2015"
    font-weight="400"
    font-stretch="normal"
    units-per-em="2048"
    panose-1="2 1 5 4 4 2 0 2 0 4"
    ascent="1536"
    descent="-512"
    x-height="1024"
    cap-height="1438"
    bbox="-53 -512 2222 1839"
    underline-thickness="102"
    underline-position="-408"
    unicode-range="U+0020-25FC"
  />
<missing-glyph horiz-adv-x="748"
d="M612 0h-544v1365h544v-1365zM136 1297v-1229h408v1229h-408z" />
    <glyph glyph-name=".notdef" horiz-adv-x="748"
d="M612 0h-544v1365h544v-1365zM136 1297v-1229h408v1229h-408z" />
    <glyph glyph-name="glyph1" horiz-adv-x="0"
 />
    <glyph glyph-name="glyph2" horiz-adv-x="682"
 />
    <glyph glyph-name="space" unicode=" " horiz-adv-x="557"
 />
    <glyph glyph-name="exclam" unicode="!" horiz-adv-x="595"
d="M227 6q-30 27 -30 70q0 42 30 69q31 25 74 25q41 0 72 -25q30 -27 30 -69q0 -43 -30 -70q-30 -24 -72 -24q-44 0 -74 24zM385 510h-168v928h168v-928z" />
    <glyph glyph-name="quotedbl" unicode="&#x22;" horiz-adv-x="698"
d="M532 1040h-122v461h153zM201 1040h-123v461h153z" />
    <glyph glyph-name="numbersign" unicode="#" horiz-adv-x="1470"
d="M528 848l-47 -492h469l47 492h-469zM303 217h-188v139h200l47 492h-247v139h262l20 211h166l-20 -211h467l20 211h166l-20 -211h180v-139h-193l-47 -492h240v-139h-252l-21 -217h-165l20 217h-471l-21 -217h-163z" />
    <glyph glyph-name="dollar" unicode="$" horiz-adv-x="1196"
d="M209 858q0 123 84.5 201.5t232.5 95.5v322h136l2 -320q74 -3 133 -13t91 -20l27 -10l-22 -129q-120 35 -260 35q-117 0 -185.5 -45.5t-68.5 -124.5q0 -34 20.5 -59.5t61.5 -43t81.5 -29.5t102.5 -28.5t102 -29.5q239 -77 238 -271q0 -122 -79.5 -202t-241.5 -101v-309
h-138v303q-96 2 -172 18q-80 17 -107 32l-30 15l23 129q12 -5 41 -15q28 -10 104 -23q78 -15 154 -15q141 0 209.5 47.5t68.5 132.5q0 36 -26 63t-69 42.5t-97.5 31.5t-111.5 29.5t-111.5 37.5t-97.5 54.5t-69 81.5t-26 117z" />
    <glyph glyph-name="percent" unicode="%" horiz-adv-x="2013"
d="M1284 360q0 -122 63.5 -193t178.5 -71q112 0 175.5 71.5t63.5 192.5q0 122 -63.5 193.5t-175.5 71.5q-115 0 -178.5 -71.5t-63.5 -193.5zM1248 77q-99 104 -99 281q0 178 100 282q101 105 277 105q171 0 273 -106q102 -107 102 -281q0 -176 -100 -280
q-101 -105 -275 -105q-180 0 -278 104zM735 0h-166l723 1438h166zM248 1077q0 -122 63 -193t178 -71q113 0 177 73q63 72 63 191q0 122 -63.5 193t-176.5 71q-115 0 -178 -71t-63 -193zM211 794q-98 104 -98 281q0 178 100 282q101 105 276 105q171 0 273 -106t102 -281
q0 -176 -100 -280q-100 -105 -275 -105q-180 0 -278 104z" />
    <glyph glyph-name="ampersand" unicode="&#x26;" horiz-adv-x="1380"
d="M281 426q0 -143 91 -231q91 -89 236 -89q142 0 248 109q-129 109 -235 241t-172 267q-70 -31 -119 -104t-49 -193zM113 428q0 180 92 288q80 96 190 134q-39 115 -39 215q0 103 32.5 181t91.5 124.5t134.5 69t167.5 22.5l52 -137q-66 0 -119.5 -14t-97.5 -44t-68.5 -83
t-24.5 -125q0 -155 122 -346q120 -190 304 -357q51 117 51 260q0 137 -47 269l148 16q49 -144 49 -289q0 -196 -84 -352q135 -102 262 -147l-61 -140q-144 43 -297 152q-152 -152 -369 -152q-233 0 -360 124q-129 125 -129 331z" />
    <glyph glyph-name="quotesingle" unicode="'" horiz-adv-x="366"
d="M201 1040h-123v461h153z" />
    <glyph glyph-name="parenleft" unicode="(" horiz-adv-x="724"
d="M226 306q-34 249 -1 502q25 194 98 386q59 149 161 288l16 19l127 -53q-14 -18 -27 -38q-15 -22 -61 -113q-45 -90 -77 -183q-34 -94 -61 -247q-28 -149 -28 -310q0 -155 26 -306q25 -145 64 -248q79 -210 138 -291l26 -36l-127 -53q-2 2 -16 18q-21 27 -41 56
q-27 40 -57 94q-25 43 -62 132q-32 77 -58 172q-23 84 -40 211z" />
    <glyph glyph-name="parenright" unicode=")" horiz-adv-x="724"
d="M225 -377l-129 53q13 16 28 38q20 31 61 113q40 80 77 183q32 92 61 248q27 152 27 309q0 156 -26 307q-25 147 -63 248q-78 207 -139 290l-26 36l129 53q10 -10 17 -18q12 -16 40 -56q61 -87 118 -224q70 -173 98 -380q16 -118 16 -250v-6q0 -259 -57 -464
q-25 -88 -56 -173q-62 -158 -160 -288z" />
    <glyph glyph-name="asterisk" unicode="*" horiz-adv-x="937"
d="M379 1059l-297 86l41 127l287 -105l-11 310h131l-10 -306l293 107l41 -125l-293 -86l191 -244l-107 -78l-172 250l-172 -254l-108 78z" />
    <glyph glyph-name="plus" unicode="+" horiz-adv-x="968"
d="M401 500h-321v141h321v332h170v-332h318v-141h-318v-336h-170v336z" />
    <glyph glyph-name="comma" unicode="," horiz-adv-x="530"
d="M158 -350l-90 94q14 9 50 49q28 31 45 59q50 79 50 181q0 18 -7 27l-3 3q-10 0 -22.5 19t-12.5 41q0 35 24 55.5t64 20.5q53 0 82 -38t29 -102q0 -65 -17 -127t-39.5 -103.5t-53.5 -80.5t-49.5 -56.5t-37.5 -33.5z" />
    <glyph glyph-name="hyphen" unicode="-" horiz-adv-x="702"
d="M623 500h-543v139h543v-139z" />
    <glyph glyph-name="period" unicode="." horiz-adv-x="569"
d="M209 6q-31 28 -31 70q0 41 31 69q31 25 74 25q40 0 71 -25q31 -28 31 -69q0 -42 -31 -70q-30 -24 -71 -24q-44 0 -74 24z" />
    <glyph glyph-name="slash" unicode="/" horiz-adv-x="991"
d="M143 -512h-159l903 2048h160z" />
    <glyph glyph-name="zero" unicode="0" horiz-adv-x="1449"
d="M322 717q0 -305 101 -460t300 -155q405 0 405 615q0 305 -102 460.5t-303 155.5q-198 0 -299.5 -156t-101.5 -460zM147 717q0 353 147 549q145 196 429 196q287 0 432 -196t145 -549q0 -354 -145 -548q-145 -196 -432 -196q-285 0 -430 196q-146 196 -146 548z" />
    <glyph glyph-name="one" unicode="1" horiz-adv-x="935"
d="M115 1126l-29 117l434 195h164v-1438h-164v1303z" />
    <glyph glyph-name="two" unicode="2" horiz-adv-x="1228"
d="M1104 0h-998v139q6 4 20.5 14.5t23.5 16.5q37 25 109 80q73 55 153 122q77 64 163 149q93 91 156 171.5t106 167.5q44 91 44 166q0 140 -94.5 218.5t-274.5 78.5q-88 0 -175 -12q-93 -14 -131 -26l-44 -13l-15 139q20 7 47 15q42 10 129 22q101 14 201 14q260 0 394 -116
q133 -115 133 -314q0 -95 -50 -204q-49 -110 -123 -201t-174 -189q-102 -98 -186 -165q-103 -82 -176 -134h762v-139z" />
    <glyph glyph-name="three" unicode="3" horiz-adv-x="1179"
d="M113 40l-11 7l25 131q7 -4 39 -17q29 -12 116 -28q90 -18 191 -18q207 0 309.5 79t102.5 228q0 120 -91 183t-235 63h-178l-8 129q23 1 67 6q142 20 253 91q58 36 91 89t33 115q0 109 -89.5 167t-268.5 58q-77 0 -153 -12q-82 -14 -114 -26l-38 -13l-15 139q13 6 42 15
q34 9 119 22q95 14 194 14q239 0 363 -89t124 -257q0 -209 -215 -334q136 -40 212.5 -133.5t76.5 -226.5q0 -216 -143.5 -332.5t-424.5 -116.5q-168 0 -263 26q-88 24 -111 41z" />
    <glyph glyph-name="four" unicode="4" horiz-adv-x="1277"
d="M86 336l-10 141l428 961h160l-406 -961h602v629h166v-1106h-166v336h-774z" />
    <glyph glyph-name="five" unicode="5" horiz-adv-x="1193"
d="M141 40l-12 7l25 131q6 -4 41 -17q30 -12 117 -28q92 -18 192 -18q188 0 292 92q103 91 103 239q0 132 -96 216q-98 83 -273 83h-294l57 693h694v-135h-565l-45 -418h168q247 0 386 -117q138 -118 138 -322q0 -220 -145 -346q-145 -127 -404 -127q-168 0 -265 26
q-89 24 -114 41z" />
    <glyph glyph-name="six" unicode="6" horiz-adv-x="1333"
d="M319 510q0 -182 96 -288q95 -107 277 -107q89 0 159 29.5t110 79.5q77 96 77 218q0 126 -97 217t-277 91q-193 0 -338 -80q-7 -80 -7 -160zM147 551q0 202 49.5 374t139.5 291q89 118 212 182t265 64q72 0 144 -11q68 -10 101 -23l32 -11l-15 -137q-111 43 -241 43
q-192 0 -316.5 -127.5t-171.5 -374.5q136 70 356 70q226 0 365 -124t139 -316q0 -189 -124 -328q-62 -70 -163.5 -110t-226.5 -40q-262 0 -403.5 149.5t-141.5 428.5z" />
    <glyph glyph-name="seven" unicode="7" horiz-adv-x="1077"
d="M856 1296h-809v142h983v-142l-590 -1296h-176z" />
    <glyph glyph-name="eight" unicode="8" horiz-adv-x="1286"
d="M324 1075q0 -55 19 -100t49.5 -75t71.5 -51.5t83 -31t86 -10.5h10q116 0 213 61q49 31 78 85t29 122q0 110 -84 179t-236 69q-153 0 -236 -69t-83 -179zM293 381q0 -128 94 -197q93 -69 254 -69h2q161 0 255 69q95 69 95 197q0 76 -28.5 133t-78 89.5t-110.5 48.5
t-133 16q-142 0 -240 -63q-52 -34 -81 -91.5t-29 -132.5zM125 371q0 251 231 370q-202 116 -202 344q0 165 129 271q128 106 360 106q231 0 361 -106q129 -107 129 -271q0 -114 -54 -201.5t-151 -142.5q110 -56 171.5 -149t61.5 -221q0 -191 -138 -294q-139 -104 -380 -104
t-380 104q-138 103 -138 294z" />
    <glyph glyph-name="nine" unicode="9" horiz-adv-x="1333"
d="M295 995q0 -123 91 -212q97 -97 282 -97q194 0 340 84q6 74 6 156q0 181 -96 289q-98 108 -279 108q-88 0 -157.5 -29.5t-108.5 -79.5q-78 -99 -78 -219zM125 987q0 186 125 326q62 69 163.5 109t225.5 40q263 0 404 -149t141 -428q0 -202 -49.5 -374t-137.5 -291
q-89 -118 -212 -182.5t-265 -64.5q-73 0 -145 11q-63 9 -101 22l-32 12l14 140q114 -43 244 -43q191 0 315.5 126.5t171.5 372.5q-147 -67 -358 -67q-225 0 -364 124q-140 125 -140 316z" />
    <glyph glyph-name="colon" unicode=":" horiz-adv-x="573"
d="M209 987q-31 28 -31 70q0 41 31 69q31 25 74 25q40 0 71 -25q31 -28 31 -69q0 -42 -31 -70q-30 -24 -71 -24q-44 0 -74 24zM209 211q-31 28 -31 70q0 41 31 69q31 25 74 25q40 0 71 -25q31 -28 31 -69q0 -42 -31 -70q-31 -25 -71 -25q-43 0 -74 25z" />
    <glyph glyph-name="semicolon" unicode=";" horiz-adv-x="569"
d="M209 782q-31 28 -31 70t31 70q30 24 74 24q41 0 71 -24q31 -28 31 -70t-31 -70q-30 -24 -71 -24q-44 0 -74 24zM180 -350l-90 94q16 10 51 49q24 27 44 59q51 84 51 181q0 16 -8 27l-3 3q-10 0 -22.5 19t-12.5 41q0 35 24.5 55.5t64.5 20.5q53 0 81.5 -38t28.5 -102
q0 -65 -17 -127t-39.5 -103.5t-53.5 -80.5t-49.5 -56.5t-37.5 -33.5z" />
    <glyph glyph-name="less" unicode="&#x3c;" horiz-adv-x="880"
d="M606 193l-450 409l450 408l119 -97l-363 -311l363 -313z" />
    <glyph glyph-name="equal" unicode="=" horiz-adv-x="1116"
d="M1036 705h-956v139h956v-139zM1036 295h-956v139h956v-139z" />
    <glyph glyph-name="greater" unicode="&#x3e;" horiz-adv-x="880"
d="M274 193l-118 96l360 311l-360 313l118 97l451 -410z" />
    <glyph glyph-name="question" unicode="?" horiz-adv-x="978"
d="M287 6q-31 28 -31 70q0 41 31 69q31 25 73 25q41 0 72 -25q31 -28 31 -69q0 -42 -31 -70q-30 -24 -72 -24q-43 0 -73 24zM133 1280l-14 137q32 11 40 13q17 5 109 20q83 12 170 12q226 0 343 -114q108 -106 108 -256q0 -77 -28.5 -153.5t-77.5 -137.5q-47 -59 -104 -113
q-23 -22 -48 -42.5t-51 -38.5t-46.5 -32t-46.5 -29t-39 -23t-36.5 -20.5t-27.5 -14.5l-30 -13l-53 127q3 1 11 5.5t13 7.5q17 9 59 36q91 58 172 134q99 93 141 192q24 55 24 110q0 95 -78 166q-77 70 -225 70q-73 0 -140 -10q-65 -9 -108 -22z" />
    <glyph glyph-name="at" unicode="@" horiz-adv-x="1990"
d="M743 485q0 -135 68.5 -203.5t194.5 -68.5q105 0 159 47q39 34 52 59v459q-60 15 -158 15q-157 0 -236.5 -80.5t-79.5 -227.5zM133 504q0 449 240 704q239 254 682 254q396 0 607 -202q210 -202 210 -562q0 -324 -106 -475t-296 -151q-197 0 -241 104q-80 -104 -260 -104
q-182 0 -289 104t-107 309q0 202 132 325q131 122 366 122q90 0 173 -8q76 -9 108 -18l30 -9v-582q0 -102 99 -102q97 0 158 104q65 111 65 381q0 305 -163.5 465t-485.5 160q-354 0 -554 -212t-200 -607q0 -358 193 -560t518 -202q102 0 198 11q88 10 128 23l38 11l10 -143
q-14 -5 -37 -12q-25 -6 -122 -18q-102 -11 -215 -11q-422 0 -650 235q-229 235 -229 666z" />
    <glyph glyph-name="A" unicode="A" horiz-adv-x="1464"
d="M731 1276l-297 -756h596zM229 0h-172l572 1438h209l569 -1438h-172l-150 381h-706z" />
    <glyph glyph-name="B" unicode="B" horiz-adv-x="1402"
d="M420 1313v-502h358q30 2 61 11t64 29t58 48.5t41 73t16 98.5q0 121 -87.5 186.5t-248.5 65.5q-145 0 -262 -10zM420 670v-545q121 -10 256 -10q226 0 326 74q98 74 98 221q0 128 -84.5 194t-243.5 66h-352zM304 -7l-52 7v1438q177 24 410 24q528 0 528 -387
q0 -191 -150 -305q112 -45 172 -137.5t60 -222.5q0 -205 -131 -317q-140 -120 -477 -120q-102 0 -206 6q-116 8 -154 14z" />
    <glyph glyph-name="C" unicode="C" horiz-adv-x="1409"
d="M147 715q0 342 203 545q202 202 547 202q108 0 218 -15q104 -14 163 -29l55 -15l-14 -139q-4 1 -60 17q-45 10 -147 26q-105 16 -203 16q-275 0 -432 -162q-158 -163 -158 -446q0 -274 163 -437q162 -163 419 -163q109 0 218 14q104 14 152 27l48 14l14 -139
q-11 -4 -47 -16q-26 -9 -146 -26q-112 -16 -249 -16q-341 0 -542 201q-202 199 -202 541z" />
    <glyph glyph-name="D" unicode="D" horiz-adv-x="1658"
d="M420 1311v-1184q180 -12 317 -12q281 0 442 156q160 156 160 444q0 291 -161 450q-161 158 -445 158q-141 0 -313 -12zM316 -7l-64 7v1438q212 24 481 24q362 0 570 -196t208 -551t-204 -548q-206 -194 -572 -194q-113 0 -233 6q-140 9 -186 14z" />
    <glyph glyph-name="E" unicode="E" horiz-adv-x="1384"
d="M1206 0h-954v1438h893v-140h-725v-503h667v-140h-667v-516h786v-139z" />
    <glyph glyph-name="F" unicode="F" horiz-adv-x="1239"
d="M420 0h-168v1438h911v-140h-743v-524h637v-139h-637v-635z" />
    <glyph glyph-name="G" unicode="G" horiz-adv-x="1628"
d="M147 715q0 349 210 548q209 199 589 199q106 0 216 -15q106 -14 167 -29l57 -15l-14 -141q-9 3 -63 17q-41 11 -148 27q-111 17 -198 17q-321 0 -482 -160q-162 -161 -162 -448q0 -292 161 -446t468 -154q204 0 305 10v520h-350v129h518v-764l-21 -4q-53 -7 -120 -15
q-62 -6 -95 -9q-117 -9 -251 -9q-395 0 -591 194q-196 193 -196 548z" />
    <glyph glyph-name="H" unicode="H" horiz-adv-x="1648"
d="M420 0h-168v1438h168v-656h807v656h170v-1438h-170v643h-807v-643z" />
    <glyph glyph-name="I" unicode="I" horiz-adv-x="671"
d="M420 0h-168v1438h168v-1438z" />
    <glyph glyph-name="J" unicode="J" horiz-adv-x="673"
d="M10 -479l-49 139q155 0 223 84.5t68 257.5v1436h170v-1475q0 -224 -99 -333t-313 -109z" />
    <glyph glyph-name="K" unicode="K" horiz-adv-x="1478"
d="M420 0h-168v1438h168v-629h203l571 629h186l-616 -703l668 -735h-197l-621 670h-194v-670z" />
    <glyph glyph-name="L" unicode="L" horiz-adv-x="1218"
d="M1190 0h-938v1438h168v-1299h770v-139z" />
    <glyph glyph-name="M" unicode="M" horiz-adv-x="2103"
d="M420 0h-168v1438h219l580 -957l583 957h219v-1438h-170v1184l-546 -889h-170l-547 889v-1184z" />
    <glyph glyph-name="N" unicode="N" horiz-adv-x="1699"
d="M420 0h-168v1438h176l852 -1188v1188h170v-1438h-180l-854 1184h-2l6 -37v-1147z" />
    <glyph glyph-name="O" unicode="O" horiz-adv-x="1734"
d="M319 717q0 -280 146 -441t401 -161q259 0 404 160t145 442q0 279 -146 442q-145 162 -403 162q-253 0 -400 -162q-147 -163 -147 -442zM147 717q0 344 192 545q192 200 527 200q337 0 529 -200q192 -201 192 -545q0 -345 -192 -544q-192 -200 -529 -200q-336 0 -527 200
q-192 199 -192 544z" />
    <glyph glyph-name="P" unicode="P" horiz-adv-x="1280"
d="M420 1315v-684h180q63 0 119.5 13t107 41.5t87 71t58 106t21.5 141.5q0 161 -101 240t-288 79q-67 0 -184 -8zM420 0h-168v1438q158 24 354 24q279 0 419 -112.5t140 -345.5q-1 -160 -63 -271t-169 -169q-132 -75 -300 -75h-213v-489z" />
    <glyph glyph-name="Q" unicode="Q" horiz-adv-x="1734"
d="M319 717q0 -281 146 -442q145 -162 401 -162q257 0 403 161t146 443q0 279 -146 442q-145 162 -403 162q-253 0 -400 -162q-147 -163 -147 -442zM147 717q0 344 192 545q192 200 527 200q337 0 529 -200q192 -201 192 -545q0 -324 -170 -521q-171 -198 -473 -221v-43
q0 -150 58 -209q57 -59 210 -59l-51 -139q-208 0 -294 83q-87 84 -87 286v81q-298 25 -465 223q-168 196 -168 519z" />
    <glyph glyph-name="R" unicode="R" horiz-adv-x="1366"
d="M420 1317v-686h176q184 0 292 96q107 96 107 256q0 164 -101.5 252t-287.5 88q-110 0 -186 -6zM420 0h-168v1438q128 24 356 24q273 0 416 -124t143 -355q0 -155 -81 -270q-83 -118 -218 -176l379 -537h-194l-351 494q-35 -5 -73 -5h-209v-489z" />
    <glyph glyph-name="S" unicode="S" horiz-adv-x="1286"
d="M224 30l-50 19l29 137q39 -14 58 -20q35 -11 146 -31q112 -20 211 -20q180 0 272 76q93 75 93 192q0 54 -27 96t-72 69.5t-103.5 50.5t-123.5 44t-130 44t-123.5 56t-103.5 75.5t-72 107t-27 145.5q0 185 130 288q128 103 357 103q109 0 208 -18q100 -18 143 -36l44 -17
l-28 -138q-37 14 -52 19q-32 10 -128 30q-94 19 -183 19q-154 0 -236.5 -65t-82.5 -183q0 -35 11.5 -66.5t28.5 -55t48.5 -46.5t57.5 -37.5t72 -33t75 -29t82.5 -28t80.5 -27.5q57 -22 100.5 -43t88 -52.5t72.5 -68t46.5 -87.5t18.5 -112q0 -193 -140 -303
q-139 -111 -397 -111q-126 0 -234 19q-115 20 -160 38z" />
    <glyph glyph-name="T" unicode="T"
d="M449 1303h-437v135h1041v-135h-435v-1303h-169v1303z" />
    <glyph glyph-name="U" unicode="U" horiz-adv-x="1630"
d="M229 463v975h168v-942q0 -169 107 -270t313 -101q204 0 311 101t107 270v942h168v-975q0 -212 -140 -347q-71 -68 -185.5 -105.5t-260.5 -37.5q-300 0 -448 143q-140 135 -140 347z" />
    <glyph glyph-name="V" unicode="V" horiz-adv-x="1429"
d="M608 0l-567 1438h180l496 -1270l495 1270h177l-564 -1438h-217z" />
    <glyph glyph-name="W" unicode="W" horiz-adv-x="2197"
d="M498 0l-457 1438h174l381 -1250l414 1250h180l416 -1248l376 1248h175l-459 -1438h-180l-418 1231l-420 -1231h-182z" />
    <glyph glyph-name="X" unicode="X" horiz-adv-x="1464"
d="M250 0h-199l578 719l-566 719h193l477 -600l477 600h193l-567 -719l579 -719h-196l-486 602z" />
    <glyph glyph-name="Y" unicode="Y" horiz-adv-x="1337"
d="M584 582l-580 856h191l469 -703l479 703h188l-579 -856v-582h-168v582z" />
    <glyph glyph-name="Z" unicode="Z" horiz-adv-x="1339"
d="M1239 0h-1139v139l922 1159h-922v140h1139v-140l-920 -1159h920v-139z" />
    <glyph glyph-name="bracketleft" unicode="[" horiz-adv-x="790"
d="M766 -156h-557v1633h557v-123h-412v-1387h412v-123z" />
    <glyph glyph-name="backslash" unicode="\" horiz-adv-x="991"
d="M850 -512l-903 2048h157l906 -2048h-160z" />
    <glyph glyph-name="bracketright" unicode="]" horiz-adv-x="790"
d="M23 -156v123h413v1387h-413v121h559v-1631h-559z" />
    <glyph glyph-name="asciicircum" unicode="^" horiz-adv-x="798"
d="M145 1092l-67 67l319 342l322 -342l-68 -67l-252 276z" />
    <glyph glyph-name="underscore" unicode="_" horiz-adv-x="1486"
d="M80 -217v139h1327v-139h-1327z" />
    <glyph glyph-name="grave" unicode="`" horiz-adv-x="444"
d="M156 1214l-82 224l137 8l84 -223z" />
    <glyph glyph-name="a" unicode="a" horiz-adv-x="1224"
d="M266 520q0 -194 87 -299q87 -106 229 -106q92 0 165.5 34t108.5 69l12 11v656q-88 28 -235 28q-367 0 -367 -393zM96 516q0 537 543 537q108 0 202 -13q93 -13 145 -28l46 -13v-776q0 -59 43 -93t115 -34l-49 -123q-198 0 -256 109q-136 -109 -328 -109q-219 0 -340 141
q-121 139 -121 402z" />
    <glyph glyph-name="b" unicode="b" horiz-adv-x="1198"
d="M330 823v-684q78 -24 223 -24q182 0 280.5 110t98.5 312q0 376 -342 376q-96 0 -169 -32q-60 -26 -81 -49zM206 12l-42 13v1450h166v-498h6q10 10 40 27q19 11 54 23q78 26 186 26q237 0 361.5 -130.5t124.5 -381.5q0 -268 -142 -417q-142 -151 -403 -151q-115 0 -209 13
q-104 14 -142 26z" />
    <glyph glyph-name="c" unicode="c" horiz-adv-x="970"
d="M96 535q0 251 143 385q142 133 388 133q84 0 161 -11q70 -12 101 -23l29 -11l-23 -129q-102 34 -254 34q-177 0 -276 -98t-99 -283q0 -206 98.5 -311.5t276.5 -105.5q98 0 164 19q55 16 81 30l9 6l25 -131q-7 -10 -34 -23q-24 -11 -52 -20q-77 -23 -207 -23
q-252 0 -391 139q-140 140 -140 423z" />
    <glyph glyph-name="d" unicode="d" horiz-adv-x="1196"
d="M266 520q0 -193 104 -299q103 -106 273 -106q136 0 202 17l23 5v684q-10 10 -48 32q-25 15 -57 28q-80 32 -165 32q-167 0 -249.5 -100.5t-82.5 -292.5zM96 516q0 264 120.5 400.5t356.5 136.5q79 0 151 -19q75 -20 105 -38l33 -19h6v500h164v-1452q-23 -8 -51 -14
q-34 -9 -136 -24q-107 -14 -210 -14q-257 0 -398 145q-141 146 -141 398z" />
    <glyph glyph-name="e" unicode="e" horiz-adv-x="1081"
d="M268 600h551q6 17 6 37q0 132 -65.5 204t-190.5 72q-136 0 -213.5 -79.5t-87.5 -233.5zM96 492q0 274 121.5 417.5t351.5 143.5q204 0 314 -119q110 -121 110 -322q0 -76 -12 -134l-4 -17h-711q0 -169 96.5 -257.5t272.5 -88.5q80 0 153 14q69 13 98 27l29 14l27 -131
q-10 -10 -39 -23q-27 -11 -58 -20q-84 -23 -224 -23q-245 0 -385 129t-140 390z" />
    <glyph glyph-name="f" unicode="f" horiz-adv-x="722"
d="M215 891h-127v133h127v141q0 177 77 257q76 79 255 79l51 -137q-123 0 -171 -52t-48 -175v-113h299v-133h-299v-891h-164v891z" />
    <glyph glyph-name="g" unicode="g" horiz-adv-x="1196"
d="M266 520q0 -194 87 -299q87 -106 229 -106q95 0 178 32q68 26 96 49l12 9v684q-77 24 -235 24q-367 0 -367 -393zM96 516q0 269 134 403t409 134q118 0 212 -13t139 -28l42 -13v-1108q0 -167 -132 -269q-133 -101 -331 -101q-157 0 -245 22q-73 18 -94 35l-9 6l25 129
q10 -6 33 -15t99 -24q79 -14 165 -14q144 0 235 68q90 68 90 174v149h-6q-12 -9 -48 -27q-31 -15 -59 -24q-87 -27 -190 -27q-219 0 -344 141q-125 142 -125 402z" />
    <glyph glyph-name="h" unicode="h" horiz-adv-x="1191"
d="M330 0h-166v1477h166v-500h6q9 9 43 27q22 12 56 23q80 26 192 26q202 0 309.5 -86.5t107.5 -251.5v-715h-163v684q0 112 -72.5 170.5t-212.5 58.5q-97 0 -170 -31q-55 -24 -86 -48l-10 -9v-825z" />
    <glyph glyph-name="i" unicode="i" horiz-adv-x="493"
d="M330 0h-166v1024h166v-1024zM179 1280q-29 24 -29 63q0 38 29 64q28 25 69 25q40 0 67 -25t27 -64q0 -38 -27 -63t-67 -25q-41 0 -69 25z" />
    <glyph glyph-name="j" unicode="j" horiz-adv-x="514"
d="M197 1280q-29 24 -29 63q0 38 29 64q28 25 69 25q40 0 67 -25t27 -64q0 -38 -27 -63t-67 -25q-41 0 -69 25zM16 -479l-51 137q117 0 168 63.5t51 194.5v1108h164v-1147q0 -182 -79 -269t-253 -87z" />
    <glyph glyph-name="k" unicode="k" horiz-adv-x="1030"
d="M330 0h-166v1477h166v-873h168l307 420h190l-348 -477l377 -547h-199l-321 463h-174v-463z" />
    <glyph glyph-name="l" unicode="l" horiz-adv-x="559"
d="M164 332v1145h166v-1108q0 -130 50.5 -194t166.5 -64l-49 -138q-174 0 -254 88t-80 271z" />
    <glyph glyph-name="m" unicode="m" horiz-adv-x="1695"
d="M330 0h-166v999q16 5 53 15q35 9 145 24q109 15 226 15q209 0 299 -97q139 97 342 97q161 0 239 -72.5t78 -228.5v-752h-164v727q0 100 -50 142t-158 42q-71 0 -125 -16q-52 -16 -78 -31q-23 -16 -33 -28v-9v-827h-164v801q0 52 -54.5 81t-152.5 29q-52 0 -115 -5
q-46 -5 -85 -11q-25 -4 -37 -8v-887z" />
    <glyph glyph-name="n" unicode="n" horiz-adv-x="1191"
d="M330 0h-166v1001l6 2q20 8 64.5 18t146 21t217.5 11q241 0 344 -82q102 -83 102 -256v-715h-163v688q0 116 -66.5 170.5t-218.5 54.5q-160 0 -266 -26v-887z" />
    <glyph glyph-name="o" unicode="o" horiz-adv-x="1214"
d="M266 524q0 -199 85.5 -305t254.5 -106q172 0 257 105t85 306q0 188 -85.5 287.5t-256.5 99.5q-170 0 -255 -99.5t-85 -287.5zM96 532q0 255 129.5 388t380.5 133t380.5 -132.5t129.5 -388.5q0 -272 -131.5 -416.5t-378.5 -144.5q-250 0 -380 143.5t-130 417.5z" />
    <glyph glyph-name="p" unicode="p" horiz-adv-x="1198"
d="M330 885v-680q11 -11 44 -31q23 -15 54 -28q74 -31 166 -31q162 0 250 110.5t88 311.5q0 193 -92.5 284.5t-280.5 91.5q-134 0 -206 -21zM330 -451h-166v1452q13 5 44 15q34 9 131 23q106 14 220 14q278 0 410.5 -126.5t132.5 -385.5q0 -265 -129 -417
q-130 -151 -363 -151q-86 0 -152 19q-70 21 -96 40l-26 19h-6v-502z" />
    <glyph glyph-name="q" unicode="q" horiz-adv-x="1196"
d="M266 520q0 -194 87 -299q87 -106 229 -106q95 0 178 32q68 26 96 49l12 9v680q-75 28 -235 28q-367 0 -367 -393zM96 516q0 269 134 403t409 134q117 0 211 -13q93 -13 140 -28l42 -13v-1450h-164v502h-6q-12 -9 -48 -27q-31 -15 -59 -24q-87 -27 -190 -27
q-219 0 -344 141q-125 142 -125 402z" />
    <glyph glyph-name="r" unicode="r" horiz-adv-x="757"
d="M330 0h-166v1001q16 6 48 15q36 9 124 23q96 14 186 14q64 0 123.5 -9t86.5 -19l24 -9l-25 -127q-65 24 -207 24q-101 0 -194 -26v-887z" />
    <glyph glyph-name="s" unicode="s" horiz-adv-x="976"
d="M100 752q0 140 108 221q109 80 290 80q83 0 163 -11q73 -11 111 -23l35 -11l-23 -129q-117 34 -260 34q-117 0 -185.5 -45.5t-68.5 -124.5q0 -34 20.5 -59.5t61.5 -43t81.5 -29t102.5 -27.5t102 -30q240 -78 239 -271q0 -131 -96 -217q-104 -93 -343 -93q-103 0 -183 16
q-87 19 -114 33l-32 17l22 129q12 -5 41 -15q28 -10 104 -23q78 -15 154 -15q142 0 210.5 47.5t68.5 132.5q0 36 -26 63t-69 42.5t-97.5 31.5t-112 29.5t-112 37.5t-97.5 54.5t-69 81.5t-26 117z" />
    <glyph glyph-name="t" unicode="t" horiz-adv-x="755"
d="M211 891h-127v133h127v215h164v-215h260v-133h-260v-563q0 -120 48 -168q46 -49 171 -49l-51 -138q-180 0 -256 71q-76 70 -76 247v600z" />
    <glyph glyph-name="u" unicode="u" horiz-adv-x="1191"
d="M147 309v715h166v-684q0 -227 283 -227q174 0 244 18l24 6v887h164v-1001h-2q-76 -19 -87 -21q-153 -29 -349 -29q-229 0 -336 82t-107 254z" />
    <glyph glyph-name="v" unicode="v" horiz-adv-x="1030"
d="M408 0l-383 1024h180l311 -844l309 844h183l-385 -1024h-215z" />
    <glyph glyph-name="w" unicode="w" horiz-adv-x="1562"
d="M315 0l-288 1024h176l219 -813h2l258 813h199l258 -811l221 811h176l-289 -1024h-213l-254 797l-252 -797h-213z" />
    <glyph glyph-name="x" unicode="x" horiz-adv-x="1058"
d="M209 0h-193l398 516l-387 508h194l307 -399h2l308 399h192l-385 -508l397 -516h-192l-320 416h-2z" />
    <glyph glyph-name="y" unicode="y"
d="M489 10l-466 1014h182l370 -809h5l280 809h182l-374 -1024q-61 -169 -139 -280q-43 -60 -95 -106q-113 -93 -258 -93l-45 139q227 0 358 350z" />
    <glyph glyph-name="z" unicode="z" horiz-adv-x="970"
d="M893 0h-821v139l600 746h-551v139h764v-139l-596 -746h604v-139z" />
    <glyph glyph-name="braceleft" unicode="{" horiz-adv-x="890"
d="M231 528v140q76 0 144 52q69 52 69 130q0 62 -30 187q-31 123 -31 198q0 139 90 215q97 82 336 82v-121q-141 0 -199 -56q-57 -55 -57 -163q0 -68 31 -188q30 -123 30 -191q0 -62 -40 -118.5t-109 -96.5q69 -40 109 -96.5t40 -118.5q0 -69 -30 -190q-31 -121 -31 -189
q0 -108 57 -163q58 -56 199 -56v-121q-239 0 -336 82q-90 76 -90 215q0 75 31 199q30 124 30 186q0 78 -69 130q-68 52 -144 52z" />
    <glyph glyph-name="bar" unicode="|" horiz-adv-x="690"
d="M428 -512h-166v2048h166v-2048z" />
    <glyph glyph-name="braceright" unicode="}" horiz-adv-x="890"
d="M141 -336v121q138 0 198 54.5t60 164.5q0 66 -30 189q-31 120 -31 190q0 62 39 119t108 96q-69 39 -108 96t-39 119q0 70 31 191q30 122 30 188q0 110 -60 164.5t-198 54.5v121q239 0 336 -82q90 -76 90 -215q0 -73 -30 -198q-31 -123 -31 -187q0 -78 69 -130
q68 -52 144 -52v-140q-76 0 -144 -52q-69 -52 -69 -130q0 -63 31 -186q30 -126 30 -199q0 -139 -90 -215q-97 -82 -336 -82z" />
    <glyph glyph-name="asciitilde" unicode="~" horiz-adv-x="1370"
d="M113 610l-9 146q10 15 51 44q31 22 65 38q92 43 218 43q151 0 255 -70q29 -19 85 -57q101 -70 226 -70q89 0 151.5 23.5t90.5 48.5l9 8l9 -129q-7 -12 -42 -40q-27 -21 -57 -35q-82 -40 -196 -40q-126 0 -207 50q-53 32 -74 46q-9 5 -29.5 18t-31.5 19.5t-28.5 15.5
t-35.5 16t-39 12q-56 14 -118 14q-107 0 -186 -36q-72 -33 -96 -55z" />
    <glyph glyph-name="uni00A0" unicode="&#xa0;" horiz-adv-x="557"
 />
    <glyph glyph-name="copyright" unicode="&#xa9;" horiz-adv-x="1730"
d="M537 680q0 175 97 276q96 101 265 101q98 0 152 -14l20 -5l-14 -127q-65 13 -142 13q-109 0 -166 -63.5t-57 -178.5q0 -107 62 -169t161 -62q65 0 123 15l19 5l18 -123q-78 -35 -174 -35q-163 0 -263 99q-101 98 -101 268zM453 1122q-144 -159 -144 -428t144 -425
q143 -156 409 -156q268 0 413 157q146 157 146 424q0 268 -146 428q-146 158 -413 158q-265 0 -409 -158zM156 694q0 325 180 522q88 97 223 150t303 53q170 0 306.5 -52.5t225.5 -149.5q181 -200 181 -523q0 -446 -321 -629q-164 -92 -392 -92q-227 0 -388 92t-239 253
q-79 159 -79 376z" />
    <glyph glyph-name="guillemotleft" unicode="&#xab;" horiz-adv-x="1150"
d="M936 127l-377 385l379 375l96 -105l-274 -272l272 -277zM549 127l-377 385l379 375l96 -105l-274 -272l272 -277z" />
    <glyph glyph-name="registered" unicode="&#xae;" horiz-adv-x="1544"
d="M680 1030v-215h84q162 0 162 117q0 52 -38.5 75t-123.5 23h-84zM680 510h-102v614h184q260 0 260 -192q0 -152 -143 -193l135 -229h-121l-123 217h-6h-84v-217zM281 809q0 -229 129 -359q128 -131 360 -131q233 0 364 131q130 130 130 359q0 232 -130 365t-364 133
q-233 0 -360 -133q-129 -134 -129 -365zM156 811q0 278 161 444q161 164 453 164t456 -165q163 -164 163 -443t-162 -443q-162 -163 -457 -163q-294 0 -454 163t-160 443z" />
    <glyph glyph-name="guillemotright" unicode="&#xbb;" horiz-adv-x="1150"
d="M608 127l-96 102l274 273l-272 278l96 107l375 -387zM221 127l-96 102l274 273l-272 278l96 107l375 -387z" />
    <glyph glyph-name="uni0400" unicode="&#x400;" horiz-adv-x="1384"
d="M639 1608l-82 223l137 8l84 -223zM1206 0h-954v1438h893v-140h-725v-503h667v-140h-667v-516h786v-139z" />
    <glyph glyph-name="afii10023" unicode="&#x401;" horiz-adv-x="1384"
d="M801 1741q0 35 25 58.5t61 23.5t61 -23.5t25 -58.5t-24.5 -57.5t-61.5 -22.5q-36 0 -61 22.5t-25 57.5zM436 1741q0 35 25 58.5t61 23.5q35 0 59.5 -23.5t24.5 -58.5q0 -36 -24 -58t-60 -22t-61 22.5t-25 57.5zM1206 0h-954v1438h893v-140h-725v-503h667v-140h-667v-516
h786v-139z" />
    <glyph glyph-name="afii10051" unicode="&#x402;" horiz-adv-x="1609"
d="M449 1298h-437v140h1041v-140h-435v-481h5q18 8 46 18q30 11 126 30q96 18 196 18q230 0 352.5 -102.5t122.5 -299.5v-518q0 -225 -97 -333.5t-310 -108.5l-51 139q160 0 225 87q65 88 65 255v449q0 290 -350 290q-77 0 -159 -17q-78 -17 -117 -32q-36 -14 -54 -24v-668
h-169v1298z" />
    <glyph glyph-name="afii10052" unicode="&#x403;" horiz-adv-x="1046"
d="M643 1602l-154 8l91 229l149 -8zM420 0h-168v1438h788v-135h-620v-1303z" />
    <glyph glyph-name="afii10053" unicode="&#x404;" horiz-adv-x="1466"
d="M147 715q0 349 202 548q200 199 548 199q108 0 218 -15q104 -14 163 -29l55 -15l-14 -139q-4 1 -60 17q-45 10 -147 26q-105 16 -203 16q-257 0 -411 -144q-156 -144 -176 -395h845v-139h-845q23 -245 181 -387q158 -143 398 -143q113 0 218 15q98 13 152 28l48 14
l14 -139q-34 -13 -68 -21q-39 -10 -88 -18q-120 -21 -286 -21q-341 0 -542 201q-202 199 -202 541z" />
    <glyph glyph-name="afii10054" unicode="&#x405;" horiz-adv-x="1286"
d="M224 30l-50 19l29 137q39 -14 58 -20q35 -11 146 -31q112 -20 211 -20q180 0 272 76q93 75 93 192q0 54 -27 96t-72 69.5t-103.5 50.5t-123.5 44t-130 44t-123.5 56t-103.5 75.5t-72 107t-27 145.5q0 185 130 288q128 103 357 103q109 0 208 -18q100 -18 143 -36l44 -17
l-28 -138q-37 14 -52 19q-32 10 -128 30q-94 19 -183 19q-154 0 -236.5 -65t-82.5 -183q0 -35 11.5 -66.5t28.5 -55t48.5 -46.5t57.5 -37.5t72 -33t75 -29t82.5 -28t80.5 -27.5q57 -22 100.5 -43t88 -52.5t72.5 -68t46.5 -87.5t18.5 -112q0 -193 -140 -303
q-139 -111 -397 -111q-126 0 -234 19q-115 20 -160 38z" />
    <glyph glyph-name="afii10055" unicode="&#x406;" horiz-adv-x="671"
d="M420 0h-168v1438h168v-1438z" />
    <glyph glyph-name="afii10056" unicode="&#x407;" horiz-adv-x="671"
d="M428 1741q0 35 25 58.5t61 23.5t61 -23.5t25 -58.5t-24.5 -57.5t-61.5 -22.5q-36 0 -61 22.5t-25 57.5zM420 0h-168v1438h168v-1438zM89 1684q-26 25 -26 57t26 58.5t61 23.5q35 0 59 -23.5t24 -58.5q0 -36 -23.5 -58t-59.5 -22q-35 0 -61 23z" />
    <glyph glyph-name="afii10057" unicode="&#x408;" horiz-adv-x="673"
d="M10 -479l-49 139q155 0 223 84.5t68 257.5v1436h170v-1475q0 -224 -99 -333t-313 -109z" />
    <glyph glyph-name="afii10058" unicode="&#x409;" horiz-adv-x="2252"
d="M1309 735v-608q151 -12 245 -12q410 0 410 323q0 297 -416 297h-239zM115 -29l-49 152q81 0 146 66t108 186q41 113 70 285q50 313 50 778h869v-564h239q299 0 443.5 -108t144.5 -328q0 -225 -138 -345q-140 -120 -444 -120q-106 0 -209 6q-116 8 -153 14l-51 7v1303
h-541q-2 -557 -116 -932q-58 -190 -153 -295t-216 -105z" />
    <glyph glyph-name="afii10059" unicode="&#x40a;" horiz-adv-x="2340"
d="M1397 735v-608q149 -12 243 -12q410 0 410 323q0 297 -416 297h-237zM420 0h-168v1438h168v-656h807v656h170v-564h237q299 0 443.5 -108t144.5 -328q0 -225 -138 -345q-140 -120 -444 -120q-106 0 -209 6q-116 8 -153 14l-51 7v643h-807v-643z" />
    <glyph glyph-name="afii10060" unicode="&#x40b;" horiz-adv-x="1695"
d="M449 1298h-437v140h1041v-140h-435v-481h5q18 8 46 18q30 11 126 30q96 18 196 18q230 0 352.5 -102.5t122.5 -299.5v-481h-168v451q0 290 -350 290q-77 0 -159 -17q-78 -17 -117 -32q-36 -14 -54 -24v-668h-169v1298z" />
    <glyph glyph-name="afii10061" unicode="&#x40c;" horiz-adv-x="1478"
d="M756 1602l-154 8l90 229l150 -8zM420 0h-168v1438h168v-629h203l571 629h186l-616 -703l668 -735h-197l-621 670h-194v-670z" />
    <glyph glyph-name="uni040D" unicode="&#x40d;" horiz-adv-x="1667"
d="M770 1608l-82 223l137 8l84 -223zM416 0h-164v1438h168v-1129l-6 -61h2l827 1169l10 21h160l-2 -4l4 4v-1438h-168v1122l4 68h-2l-823 -1170z" />
    <glyph glyph-name="afii10062" unicode="&#x40e;" horiz-adv-x="1390"
d="M432 1685l-10 9l29 125q8 -8 43 -26q26 -13 57 -24q82 -26 199 -26q121 0 198 27q71 25 90 41l9 8l30 -125q-13 -12 -44 -30q-32 -17 -61 -26q-90 -30 -222 -30q-136 0 -222 31q-73 25 -96 46zM670 328l-637 1110h188l543 -946l414 946h180l-484 -1094
q-77 -174 -176 -265q-117 -106 -299 -106l-47 140q110 0 184 53t134 162z" />
    <glyph glyph-name="afii10145" unicode="&#x40f;" horiz-adv-x="1605"
d="M725 0h-473v1438h168v-1303h766v1303h168v-1438h-473l-7 -348h-143z" />
    <glyph glyph-name="afii10017" unicode="&#x410;" horiz-adv-x="1464"
d="M731 1276l-297 -756h596zM229 0h-172l572 1438h209l569 -1438h-172l-150 381h-706z" />
    <glyph glyph-name="afii10018" unicode="&#x411;" horiz-adv-x="1361"
d="M420 735v-608q152 -12 246 -12q216 0 317.5 81.5t101.5 243.5q0 295 -426 295h-239zM306 -7l-54 7v1438h819v-140h-651v-424h239q299 0 443.5 -107.5t144.5 -326.5q0 -226 -138.5 -346.5t-442.5 -120.5q-98 0 -201 6q-119 9 -159 14z" />
    <glyph glyph-name="afii10019" unicode="&#x412;" horiz-adv-x="1402"
d="M420 1313v-502h358q30 2 61 11t64 29t58 48.5t41 73t16 98.5q0 121 -87.5 186.5t-248.5 65.5q-145 0 -262 -10zM420 670v-545q121 -10 256 -10q226 0 326 74q98 74 98 221q0 128 -84.5 194t-243.5 66h-352zM304 -7l-52 7v1438q177 24 410 24q528 0 528 -387
q0 -191 -150 -305q112 -45 172 -137.5t60 -222.5q0 -205 -131 -317q-140 -120 -477 -120q-102 0 -206 6q-116 8 -154 14z" />
    <glyph glyph-name="afii10020" unicode="&#x413;" horiz-adv-x="1046"
d="M420 0h-168v1438h788v-135h-620v-1303z" />
    <glyph glyph-name="afii10021" unicode="&#x414;" horiz-adv-x="1589"
d="M377 135h751v1168h-538q-9 -351 -66 -658q-58 -309 -147 -510zM104 -352v487h101q97 198 160 558q63 357 63 745h870v-1303h170v-487h-151v352h-1069v-352h-144z" />
    <glyph glyph-name="afii10022" unicode="&#x415;" horiz-adv-x="1384"
d="M1206 0h-954v1438h893v-140h-725v-503h667v-140h-667v-516h786v-139z" />
    <glyph glyph-name="afii10024" unicode="&#x416;" horiz-adv-x="2162"
d="M244 0h-197l549 739l-524 699h196l471 -615h222v615h169v-615h207l518 615h197l-557 -674l621 -764h-199l-571 684h-216v-684h-169v682h-213z" />
    <glyph glyph-name="afii10025" unicode="&#x417;" horiz-adv-x="1241"
d="M154 18l-37 15l14 135q13 -5 49 -15t134 -23q102 -15 210 -15q207 0 311 80q103 79 103 206q0 118 -94 190q-95 71 -258 71h-246v139h252q42 1 91.5 20t96.5 52t78 87t31 117q0 119 -93 182.5t-276 63.5q-88 0 -175 -12q-92 -14 -130 -26l-43 -13l-14 139q19 7 46 15
q38 10 128 22q101 14 200 14q259 0 394 -97.5t135 -272.5q0 -208 -209 -336q123 -45 190.5 -137.5t67.5 -219.5q0 -184 -136 -302q-143 -124 -439 -124q-137 0 -240 15q-105 15 -141 30z" />
    <glyph glyph-name="afii10026" unicode="&#x418;" horiz-adv-x="1667"
d="M416 0h-164v1438h168v-1129l-6 -61h2l827 1169l10 21h160l-2 -4l4 4v-1438h-168v1122l4 68h-2l-823 -1170z" />
    <glyph glyph-name="afii10027" unicode="&#x419;" horiz-adv-x="1667"
d="M522 1685l-10 9l29 125q8 -8 43 -26q26 -13 57 -24q82 -26 199 -26q121 0 198 27q71 25 90 41l9 8l30 -125q-13 -12 -44 -30q-32 -17 -61 -26q-90 -30 -222 -30q-136 0 -222 31q-73 25 -96 46zM416 0h-164v1438h168v-1129l-6 -61h2l827 1169l10 21h160l-2 -4l4 4v-1438
h-168v1122l4 68h-2l-823 -1170z" />
    <glyph glyph-name="afii10028" unicode="&#x41a;" horiz-adv-x="1478"
d="M420 0h-168v1438h168v-629h203l571 629h186l-616 -703l668 -735h-197l-621 670h-194v-670z" />
    <glyph glyph-name="afii10029" unicode="&#x41b;" horiz-adv-x="1560"
d="M115 -29l-49 152q81 0 146 66t108 186q41 113 70 285q50 313 50 778h869v-1438h-168v1303h-541q-2 -557 -116 -932q-58 -190 -153 -295t-216 -105z" />
    <glyph glyph-name="afii10030" unicode="&#x41c;" horiz-adv-x="2103"
d="M420 0h-168v1438h219l580 -957l583 957h219v-1438h-170v1184l-546 -889h-170l-547 889v-1184z" />
    <glyph glyph-name="afii10031" unicode="&#x41d;" horiz-adv-x="1648"
d="M420 0h-168v1438h168v-656h807v656h170v-1438h-170v643h-807v-643z" />
    <glyph glyph-name="afii10032" unicode="&#x41e;" horiz-adv-x="1734"
d="M319 717q0 -280 146 -441t401 -161q259 0 404 160t145 442q0 279 -146 442q-145 162 -403 162q-253 0 -400 -162q-147 -163 -147 -442zM147 717q0 344 192 545q192 200 527 200q337 0 529 -200q192 -201 192 -545q0 -345 -192 -544q-192 -200 -529 -200q-336 0 -527 200
q-192 199 -192 544z" />
    <glyph glyph-name="afii10033" unicode="&#x41f;" horiz-adv-x="1605"
d="M420 0h-168v1438h1102v-1438h-168v1303h-766v-1303z" />
    <glyph glyph-name="afii10034" unicode="&#x420;" horiz-adv-x="1280"
d="M420 1315v-684h180q63 0 119.5 13t107 41.5t87 71t58 106t21.5 141.5q0 161 -101 240t-288 79q-67 0 -184 -8zM420 0h-168v1438q158 24 354 24q279 0 419 -112.5t140 -345.5q-1 -160 -63 -271t-169 -169q-132 -75 -300 -75h-213v-489z" />
    <glyph glyph-name="afii10035" unicode="&#x421;" horiz-adv-x="1390"
d="M147 715q0 342 203 545q202 202 547 202q108 0 218 -15q104 -14 163 -29l55 -15l-14 -139q-4 1 -60 17q-45 10 -147 26q-105 16 -203 16q-275 0 -432 -162q-158 -163 -158 -446q0 -274 163 -437q162 -163 419 -163q109 0 218 14q104 14 152 27l48 14l14 -139
q-11 -4 -47 -16q-26 -9 -146 -26q-112 -16 -249 -16q-341 0 -542 201q-202 199 -202 541z" />
    <glyph glyph-name="afii10036" unicode="&#x422;"
d="M449 1303h-437v135h1041v-135h-435v-1303h-169v1303z" />
    <glyph glyph-name="afii10037" unicode="&#x423;" horiz-adv-x="1390"
d="M670 328l-637 1110h188l543 -946l414 946h180l-484 -1094q-77 -174 -176 -265q-117 -106 -299 -106l-47 140q110 0 184 53t134 162z" />
    <glyph glyph-name="afii10038" unicode="&#x424;" horiz-adv-x="1888"
d="M1026 1122v-805q276 3 409.5 99.5t133.5 304.5q0 213 -132 306q-134 92 -411 95zM319 715q0 -204 131.5 -298.5t407.5 -97.5v805q-276 -3 -407.5 -100.5t-131.5 -308.5zM147 715q0 537 711 547v176h168v-176q337 -5 521 -125q194 -130 194 -416q0 -538 -715 -545v-176
h-168v176q-711 8 -711 539z" />
    <glyph glyph-name="afii10039" unicode="&#x425;" horiz-adv-x="1464"
d="M250 0h-199l578 719l-566 719h193l477 -600l477 600h193l-567 -719l579 -719h-196l-486 602z" />
    <glyph glyph-name="afii10040" unicode="&#x426;" horiz-adv-x="1646"
d="M1374 0h-1122v1438h168v-1303h766v1303h168v-1303h172l-8 -487h-144v352z" />
    <glyph glyph-name="afii10041" unicode="&#x427;" horiz-adv-x="1470"
d="M199 877v561h168v-531q0 -147 73.5 -214.5t233.5 -67.5q94 0 189 21q92 19 130 36q34 14 58 27v729h168v-1438h-168v582q-21 -13 -72 -34q-37 -16 -89 -31q-126 -34 -276 -34q-213 0 -314 99.5t-101 294.5z" />
    <glyph glyph-name="afii10042" unicode="&#x428;" horiz-adv-x="2205"
d="M1954 0h-1702v1438h168v-1303h600v1303h170v-1303h596v1303h168v-1438z" />
    <glyph glyph-name="afii10043" unicode="&#x429;" horiz-adv-x="2246"
d="M1974 0h-1722v1438h168v-1303h600v1303h170v-1303h596v1303h168v-1303h170l-6 -487h-144v352z" />
    <glyph glyph-name="afii10044" unicode="&#x42a;" horiz-adv-x="1558"
d="M616 735v-608q152 -12 246 -12q410 0 410 323q0 297 -416 297h-240zM449 1298h-437v140h604v-564h240q299 0 443.5 -108t144.5 -328q0 -225 -138 -345q-140 -120 -444 -120q-106 0 -209 6q-116 8 -153 14l-51 7v1298z" />
    <glyph glyph-name="afii10045" unicode="&#x42b;" horiz-adv-x="1964"
d="M1716 0h-168v1438h168v-1438zM420 735v-608q152 -12 246 -12q210 0 309.5 81.5t99.5 241.5q0 297 -416 297h-239zM302 -7l-50 7v1438h168v-564h239q299 0 443.5 -108t144.5 -328q0 -225 -138 -345t-443 -120q-106 0 -209 6q-118 9 -155 14z" />
    <glyph glyph-name="afii10046" unicode="&#x42c;" horiz-adv-x="1361"
d="M420 735v-608q152 -12 246 -12q210 0 309.5 81.5t99.5 241.5q0 297 -416 297h-239zM302 -7l-50 7v1438h168v-564h239q299 0 443.5 -108t144.5 -328q0 -225 -138 -345t-443 -120q-106 0 -209 6q-118 9 -155 14z" />
    <glyph glyph-name="afii10047" unicode="&#x42d;" horiz-adv-x="1409"
d="M154 18l-37 15l14 135q13 -5 49 -15t134 -23q102 -15 210 -15q251 0 399 142q148 141 160 405h-743v139h741q-42 522 -549 522q-88 0 -175 -12q-92 -14 -130 -26l-43 -13l-16 139q20 7 47 15q42 10 129 22q101 14 201 14q349 0 535 -202.5t182 -552.5q0 -341 -192 -538
q-193 -196 -535 -196q-137 0 -240 15q-105 15 -141 30z" />
    <glyph glyph-name="afii10048" unicode="&#x42e;" horiz-adv-x="2344"
d="M930 717q0 -281 146 -442q145 -160 401 -160t402 161t146 441q0 279 -147 442q-147 162 -401 162q-255 0 -401 -162q-146 -164 -146 -442zM420 0h-168v1438h168v-656h340q20 317 208 498q190 182 509 182q337 0 529 -200q192 -201 192 -545q0 -345 -192 -544
q-192 -200 -529 -200q-319 0 -506 178q-189 178 -211 490h-340v-641z" />
    <glyph glyph-name="afii10049" unicode="&#x42f;" horiz-adv-x="1390"
d="M315 999q0 -92 50 -163q50 -72 122 -104q72 -34 154 -34h330v613q-164 12 -254 12q-184 0 -293 -88t-109 -236zM319 0h-182l320 580q-137 40 -225 150q-89 110 -89 269q0 215 156 340q155 123 414 123q83 0 190 -6t171 -12l65 -6v-1438h-168v559h-353z" />
    <glyph glyph-name="afii10065" unicode="&#x430;" horiz-adv-x="1224"
d="M266 520q0 -194 87 -299q87 -106 229 -106q92 0 165.5 34t108.5 69l12 11v656q-88 28 -235 28q-367 0 -367 -393zM96 516q0 537 543 537q108 0 202 -13q93 -13 145 -28l46 -13v-776q0 -59 43 -93t115 -34l-49 -123q-198 0 -256 109q-136 -109 -328 -109q-219 0 -340 141
q-121 139 -121 402z" />
    <glyph glyph-name="afii10066" unicode="&#x431;" horiz-adv-x="1202"
d="M266 569q0 -454 326 -454q173 0 258 109q86 109 86 288q0 165 -86.5 257.5t-255.5 92.5q-133 0 -228 -46q-67 -33 -98 -58q-2 -76 -2 -189zM96 592q0 317 56 510q30 106 82 177q82 113 218 167.5t347 54.5h164l16 -141h-158q-149 0 -247 -26t-159 -84
q-60 -57 -91.5 -137.5t-44.5 -203.5h20q23 17 60 33q26 12 74 29q105 33 226 33q205 0 325 -127t120 -349q0 -261 -135 -408t-383 -147q-490 0 -490 619z" />
    <glyph glyph-name="afii10067" unicode="&#x432;" horiz-adv-x="1081"
d="M330 897v-303h313q2 0 12 -1t13 -1q114 50 114 164q0 157 -258 157q-79 0 -194 -16zM330 455v-330q107 -10 213 -10q291 0 291 184q0 74 -61 115t-169 41h-274zM212 2l-48 10v1000q162 41 362 41q218 0 321 -68t103 -205q0 -140 -121 -225q80 -36 126 -102t46 -152
q0 -328 -464 -328q-89 0 -182 9q-102 11 -143 20z" />
    <glyph glyph-name="afii10068" unicode="&#x433;" horiz-adv-x="786"
d="M330 0h-166v1024h627v-139h-461v-885z" />
    <glyph glyph-name="afii10069" unicode="&#x434;" horiz-adv-x="1247"
d="M303 139h563v746h-401q-11 -425 -162 -746zM29 -334v473h112q95 177 138 387q43 208 43 498h708v-885h170v-473h-156v334h-868v-334h-147z" />
    <glyph glyph-name="afii10070" unicode="&#x435;" horiz-adv-x="1081"
d="M268 600h551q6 17 6 37q0 132 -65.5 204t-190.5 72q-136 0 -213.5 -79.5t-87.5 -233.5zM96 492q0 274 121.5 417.5t351.5 143.5q204 0 314 -119q110 -121 110 -322q0 -76 -12 -134l-4 -17h-711q0 -169 96.5 -257.5t272.5 -88.5q80 0 153 14q69 13 98 27l29 14l27 -131
q-10 -10 -39 -23q-27 -11 -58 -20q-84 -23 -224 -23q-245 0 -385 129t-140 390z" />
    <glyph glyph-name="afii10072" unicode="&#x436;" horiz-adv-x="1515"
d="M215 0h-186l342 532l-326 492h188l289 -422h154v422h164v-422h137l321 422h189l-352 -494l352 -530h-189l-311 463h-147v-463h-164v463h-141z" />
    <glyph glyph-name="afii10073" unicode="&#x437;" horiz-adv-x="960"
d="M90 30l-10 7l24 129q13 -7 33 -14q23 -10 94 -23q76 -14 154 -14q153 0 236.5 48t83.5 142q0 73 -65 115.5t-181 42.5h-217v139h221q40 0 113 30q40 16 66 51.5t26 78.5q0 70 -77 110.5t-214 40.5q-63 0 -137 -8q-65 -8 -104 -17l-34 -9l-22 129q29 10 41 13q17 5 115 20
q88 12 184 12q209 0 312.5 -70.5t103.5 -204.5q0 -139 -148 -227q86 -34 136 -99.5t50 -152.5q0 -326 -450 -326q-147 0 -235 22q-74 20 -99 35z" />
    <glyph glyph-name="afii10074" unicode="&#x438;" horiz-adv-x="1239"
d="M332 0h-168v1024h166v-772l-4 -14l581 782v4h166v-1024h-164v760l2 10z" />
    <glyph glyph-name="afii10075" unicode="&#x439;" horiz-adv-x="1239"
d="M311 1294l-10 9l29 124q10 -10 43 -26q20 -11 57 -23q82 -26 199 -26q98 0 170 19q76 20 101 37l26 19l30 -124q-12 -13 -44 -30t-61 -26q-90 -30 -222 -30q-136 0 -222 31q-73 25 -96 46zM332 0h-168v1024h166v-772l-4 -14l581 782v4h166v-1024h-164v760l2 10z" />
    <glyph glyph-name="afii10076" unicode="&#x43a;" horiz-adv-x="1030"
d="M330 0h-166v1024h166v-420h168l307 420h190l-342 -477l371 -547h-199l-321 463h-174v-463z" />
    <glyph glyph-name="afii10077" unicode="&#x43b;" horiz-adv-x="1157"
d="M74 -25l-47 121q94 0 155 85q60 85 94 293q33 208 33 550h682v-1024h-164v885h-366q-1 -331 -44 -531.5t-126 -289.5t-217 -89z" />
    <glyph glyph-name="afii10078" unicode="&#x43c;" horiz-adv-x="1499"
d="M330 0h-166v1024h229l357 -655l352 655h233v-1024h-166v801l-348 -621h-143l-348 619v-799z" />
    <glyph glyph-name="afii10079" unicode="&#x43d;" horiz-adv-x="1206"
d="M330 0h-166v1024h166v-426h547v426h165v-1024h-165v457h-547v-457z" />
    <glyph glyph-name="afii10080" unicode="&#x43e;" horiz-adv-x="1214"
d="M266 524q0 -199 85.5 -305t254.5 -106q172 0 257 105t85 306q0 188 -85.5 287.5t-256.5 99.5q-170 0 -255 -99.5t-85 -287.5zM96 532q0 255 129.5 388t380.5 133t380.5 -132.5t129.5 -388.5q0 -272 -131.5 -416.5t-378.5 -144.5q-250 0 -380 143.5t-130 417.5z" />
    <glyph glyph-name="afii10081" unicode="&#x43f;" horiz-adv-x="1187"
d="M330 0h-166v1024h860v-1024h-164v885h-530v-885z" />
    <glyph glyph-name="afii10082" unicode="&#x440;" horiz-adv-x="1198"
d="M330 885v-680q11 -11 44 -31q23 -15 54 -28q74 -31 166 -31q162 0 250 110.5t88 311.5q0 193 -92.5 284.5t-280.5 91.5q-134 0 -206 -21zM330 -451h-166v1452q13 5 44 15q34 9 131 23q106 14 220 14q278 0 410.5 -126.5t132.5 -385.5q0 -265 -129 -417
q-130 -151 -363 -151q-86 0 -152 19q-70 21 -96 40l-26 19h-6v-502z" />
    <glyph glyph-name="afii10083" unicode="&#x441;" horiz-adv-x="970"
d="M96 535q0 251 143 385q142 133 388 133q84 0 161 -11q70 -12 101 -23l29 -11l-23 -129q-102 34 -254 34q-177 0 -276 -98t-99 -283q0 -206 98.5 -311.5t276.5 -105.5q98 0 164 19q55 16 81 30l9 6l25 -131q-7 -10 -34 -23q-24 -11 -52 -20q-77 -23 -207 -23
q-252 0 -391 139q-140 140 -140 423z" />
    <glyph glyph-name="afii10084" unicode="&#x442;" horiz-adv-x="851"
d="M344 885h-328v139h820v-139h-328v-885h-164v885z" />
    <glyph glyph-name="afii10085" unicode="&#x443;"
d="M489 10l-466 1014h182l370 -809h5l280 809h182l-374 -1024q-61 -169 -139 -280q-43 -60 -95 -106q-113 -93 -258 -93l-45 139q227 0 358 350z" />
    <glyph glyph-name="afii10086" unicode="&#x444;" horiz-adv-x="1495"
d="M829 911v-798h13q389 0 389 419q0 379 -389 379h-13zM266 532q0 -421 387 -421h13v800h-13q-387 0 -387 -379zM96 532q0 521 557 521l13 -2v426h163v-424h13q287 0 422 -128.5t135 -392.5q0 -561 -557 -561l-13 2v-424h-163v422h-13q-287 0 -422 138.5t-135 422.5z" />
    <glyph glyph-name="afii10087" unicode="&#x445;" horiz-adv-x="1058"
d="M209 0h-193l398 516l-387 508h194l307 -399h2l308 399h192l-385 -508l397 -516h-192l-320 416h-2z" />
    <glyph glyph-name="afii10088" unicode="&#x446;" horiz-adv-x="1241"
d="M1016 0h-852v1024h166v-885h530v885h164v-885h147v-473h-155v334z" />
    <glyph glyph-name="afii10089" unicode="&#x447;" horiz-adv-x="1079"
d="M104 651v373h168v-322q0 -97 49 -143.5t152 -46.5q75 0 144 12q70 12 101 24l32 13v463h165v-1024h-165v424q-19 -8 -38 -14q-28 -10 -112 -23q-90 -14 -184 -14q-312 0 -312 278z" />
    <glyph glyph-name="afii10090" unicode="&#x448;" horiz-adv-x="1667"
d="M1501 0h-1337v1024h166v-885h422v885h163v-885h422v885h164v-1024z" />
    <glyph glyph-name="afii10091" unicode="&#x449;" horiz-adv-x="1718"
d="M1495 0h-1331v1024h166v-885h422v885h163v-885h422v885h164v-885h150v-473h-156v334z" />
    <glyph glyph-name="afii10092" unicode="&#x44a;" horiz-adv-x="1204"
d="M479 549v-420q126 -14 215 -14q139 0 213 57t74 172q0 103 -79 154q-80 51 -206 51h-217zM313 891h-317v133h483v-336h244q175 0 298 -80q61 -40 95.5 -106t34.5 -148q0 -184 -117.5 -282.5t-339.5 -98.5q-90 0 -184 9q-107 12 -146 20l-51 10v879z" />
    <glyph glyph-name="afii10093" unicode="&#x44b;" horiz-adv-x="1531"
d="M1368 0h-164v1024h164v-1024zM330 549v-420q128 -14 215 -14q286 0 286 229q0 103 -78 154q-80 51 -206 51h-217zM214 2l-50 10v1012h166v-336h243q175 0 298 -80q61 -40 95.5 -106t34.5 -148q0 -184 -117.5 -282.5t-338.5 -98.5q-89 0 -184 9q-106 12 -147 20z" />
    <glyph glyph-name="afii10094" unicode="&#x44c;" horiz-adv-x="1056"
d="M330 549v-420q128 -14 215 -14q286 0 286 229q0 103 -78 154q-80 51 -206 51h-217zM214 2l-50 10v1012h166v-336h243q175 0 298 -80q61 -40 95.5 -106t34.5 -148q0 -184 -117.5 -282.5t-338.5 -98.5q-89 0 -184 9q-106 12 -147 20z" />
    <glyph glyph-name="afii10095" unicode="&#x44d;" horiz-adv-x="1056"
d="M89 30l-9 7l24 129q11 -6 34 -14q25 -10 102 -23q82 -14 170 -14q185 0 278.5 85.5t108.5 254.5h-551v139h551q-15 154 -114.5 236.5t-272.5 82.5q-71 0 -153 -8q-71 -8 -116 -17l-39 -9l-22 129q28 10 36 13q17 5 110 20q85 12 184 12q258 0 404 -140q144 -139 144 -383
q0 -274 -139.5 -415.5t-408.5 -141.5q-142 0 -228 22q-69 19 -93 35z" />
    <glyph glyph-name="afii10096" unicode="&#x44e;" horiz-adv-x="1609"
d="M674 524q0 -198 83 -304.5t247 -106.5q170 0 254.5 105t84.5 306q0 188 -85 287.5t-254 99.5q-164 0 -247 -99.5t-83 -287.5zM330 0h-166v1024h166v-426h178q15 222 141.5 338.5t354.5 116.5q251 0 380 -132.5t129 -388.5q0 -271 -131.5 -416t-377.5 -145
q-227 0 -353 124t-143 362h-178v-457z" />
    <glyph glyph-name="afii10097" unicode="&#x44f;" horiz-adv-x="1079"
d="M262 713q0 -185 262 -185h228v373q-126 12 -205 12q-142 0 -213.5 -51.5t-71.5 -148.5zM92 713q0 340 451 340q104 0 193 -10q92 -10 136 -21l43 -10v-1012h-163v389h-250h-17l-213 -389h-174l232 408q-117 32 -177.5 110t-60.5 195z" />
    <glyph glyph-name="uni0450" unicode="&#x450;" horiz-adv-x="1101"
d="M518 1214l-82 224l137 8l84 -223zM279 600h550q7 15 7 37q0 132 -65.5 204t-190.5 72q-136 0 -213.5 -79.5t-87.5 -233.5zM106 492q0 274 122 417.5t352 143.5q204 0 314 -119q110 -121 110 -322q0 -76 -12 -134l-5 -17h-711q0 -169 96.5 -257.5t272.5 -88.5q80 0 153 14
q70 13 99 27l29 14l26 -131q-10 -10 -39 -23q-27 -11 -58 -20q-84 -23 -224 -23q-245 0 -385 129t-140 390z" />
    <glyph glyph-name="afii10071" unicode="&#x451;" horiz-adv-x="1081"
d="M647 1333q0 35 25 58.5t61 23.5t61 -23.5t25 -58.5t-24.5 -57.5t-61.5 -22.5q-36 0 -61 22.5t-25 57.5zM283 1333q0 35 25 58.5t61 23.5q35 0 59.5 -23.5t24.5 -58.5q0 -36 -24 -58t-60 -22t-61 22.5t-25 57.5zM268 600h551q6 17 6 37q0 132 -65.5 204t-190.5 72
q-136 0 -213.5 -79.5t-87.5 -233.5zM96 492q0 274 121.5 417.5t351.5 143.5q204 0 314 -119q110 -121 110 -322q0 -76 -12 -134l-4 -17h-711q0 -169 96.5 -257.5t272.5 -88.5q80 0 153 14q69 13 98 27l29 14l27 -131q-10 -10 -39 -23q-27 -11 -58 -20q-84 -23 -224 -23
q-245 0 -385 129t-140 390z" />
    <glyph glyph-name="afii10099" unicode="&#x452;" horiz-adv-x="1159"
d="M172 1100h-125v139h125v238h164v-238h426v-139h-426v-357h8q9 9 43 27q22 12 56 23q80 26 192 26q203 0 310.5 -86t107.5 -252v-563q0 -184 -80 -291q-81 -106 -252 -106l-51 137q122 0 173 91q46 82 46 208v494q0 229 -285 229q-97 0 -170 -31q-55 -24 -86 -48l-10 -9
l-2 10v-602h-164v1100z" />
    <glyph glyph-name="afii10100" unicode="&#x453;" horiz-adv-x="786"
d="M494 1208l-154 9l90 229l150 -8zM330 0h-166v1024h627v-139h-461v-885z" />
    <glyph glyph-name="afii10101" unicode="&#x454;" horiz-adv-x="1015"
d="M96 535q0 251 143 385q142 133 388 133q84 0 161 -11q70 -12 101 -23l29 -11l-23 -129q-102 34 -254 34q-165 0 -262.5 -84.5t-110.5 -244.5h512l-8 -142h-502q21 -162 117 -244.5t254 -82.5q98 0 164 19q55 16 81 30l9 6l25 -131q-7 -10 -34 -23q-24 -11 -52 -20
q-77 -23 -207 -23q-252 0 -391 139q-140 140 -140 423z" />
    <glyph glyph-name="afii10102" unicode="&#x455;" horiz-adv-x="976"
d="M100 752q0 140 108 221q109 80 290 80q83 0 163 -11q73 -11 111 -23l35 -11l-23 -129q-117 34 -260 34q-117 0 -185.5 -45.5t-68.5 -124.5q0 -34 20.5 -59.5t61.5 -43t81.5 -29t102.5 -27.5t102 -30q240 -78 239 -271q0 -131 -96 -217q-104 -93 -343 -93q-103 0 -183 16
q-87 19 -114 33l-32 17l22 129q12 -5 41 -15q28 -10 104 -23q78 -15 154 -15q142 0 210.5 47.5t68.5 132.5q0 36 -26 63t-69 42.5t-97.5 31.5t-112 29.5t-112 37.5t-97.5 54.5t-69 81.5t-26 117z" />
    <glyph glyph-name="afii10103" unicode="&#x456;" horiz-adv-x="493"
d="M330 0h-166v1024h166v-1024zM179 1280q-29 24 -29 63q0 38 29 64q28 25 69 25q40 0 67 -25t27 -64q0 -38 -27 -63t-67 -25q-41 0 -69 25z" />
    <glyph glyph-name="afii10104" unicode="&#x457;" horiz-adv-x="493"
d="M342 1333q0 35 25 58.5t61 23.5t61 -23.5t25 -58.5t-24.5 -57.5t-61.5 -22.5q-36 0 -61 22.5t-25 57.5zM330 0h-166v1024h166v-1024zM-23 1333q0 35 25 58.5t61 23.5q35 0 59.5 -23.5t24.5 -58.5q0 -36 -24 -58t-60 -22t-61 22.5t-25 57.5z" />
    <glyph glyph-name="afii10105" unicode="&#x458;" horiz-adv-x="514"
d="M199 1280q-29 24 -29 63q0 38 29 64q28 25 69 25q40 0 67 -25t27 -64q0 -38 -27 -63t-67 -25q-41 0 -69 25zM16 -479l-51 137q117 0 168 63.5t51 194.5v1108h164v-1147q0 -182 -79 -269t-253 -87z" />
    <glyph glyph-name="afii10106" unicode="&#x459;" horiz-adv-x="1718"
d="M991 549v-420q128 -14 215 -14q139 0 213 57t74 172q0 103 -79 154q-80 51 -206 51h-217zM74 -25l-47 121q94 0 155 85q60 85 94 293q33 208 33 550h682v-336h244q175 0 298 -80q61 -40 95.5 -106t34.5 -148q0 -184 -117.5 -282.5t-339.5 -98.5q-126 0 -315 27h-64v10
l-2 2v873h-364q-1 -331 -44 -531.5t-126 -289.5t-217 -89z" />
    <glyph glyph-name="afii10107" unicode="&#x45a;" horiz-adv-x="1769"
d="M1042 549v-420q126 -14 215 -14q139 0 213 57t74 172q0 103 -78 154q-80 51 -206 51h-218zM330 0h-166v1024h166v-426h547v426h165v-336h244q175 0 298 -80q61 -40 95.5 -106t34.5 -148q0 -184 -117.5 -282.5t-339.5 -98.5q-126 0 -315 27h-65v457h-547v-457z" />
    <glyph glyph-name="afii10108" unicode="&#x45b;" horiz-adv-x="1159"
d="M172 1104h-125v139h125v234h164v-234h426v-139h-426v-361h8q9 9 43 27q22 12 56 23q80 26 192 26q203 0 310.5 -86t107.5 -252v-481h-164v451q0 229 -285 229q-97 0 -170 -31q-55 -24 -86 -48l-10 -9l-2 10v-602h-164v1104z" />
    <glyph glyph-name="afii10109" unicode="&#x45c;" horiz-adv-x="1030"
d="M627 1208l-154 9l90 229l150 -8zM330 0h-166v1024h166v-420h168l307 420h190l-342 -477l371 -547h-199l-321 463h-174v-463z" />
    <glyph glyph-name="uni045D" unicode="&#x45d;" horiz-adv-x="1259"
d="M535 1214l-82 224l137 8l84 -223zM342 0h-168v1024h166v-772l-4 -14l582 782v4h165v-1024h-163v760l2 10z" />
    <glyph glyph-name="afii10110" unicode="&#x45e;"
d="M225 1294l-10 9l29 124q10 -10 43 -26q20 -11 57 -23q82 -26 199 -26q98 0 170 19q76 20 101 37l26 19l30 -124q-12 -13 -44 -30t-61 -26q-90 -30 -222 -30q-136 0 -222 31q-73 25 -96 46zM489 10l-466 1014h182l370 -809h5l280 809h182l-374 -1024q-61 -169 -139 -280
q-43 -60 -95 -106q-113 -93 -258 -93l-45 139q227 0 358 350z" />
    <glyph glyph-name="afii10193" unicode="&#x45f;" horiz-adv-x="1228"
d="M545 0h-381v1024h166v-891h569v891h166v-1024h-367l-6 -334h-147v334z" />
    <glyph glyph-name="afii10146" unicode="&#x462;" horiz-adv-x="1460"
d="M508 735v-608h244q216 0 317.5 76.5t101.5 236.5q0 150 -105.5 222.5t-320.5 72.5h-237zM338 1303h-326v135h326v102h168v-102h547v-135h-545v-445h237q588 0 588 -414q0 -444 -571 -444h-424v1303z" />
    <glyph glyph-name="afii10194" unicode="&#x463;" horiz-adv-x="1150"
d="M424 532v-415h209q145 0 217 52.5t72 164.5q0 198 -295 198h-203zM260 891h-264v133h264v205h164v-205h393v-109l-391 -6v-18h-2v-244h205q101 0 182 -17t145 -53t99 -98t35 -145q0 -334 -455 -334h-375v891z" />
    <glyph glyph-name="afii10050" unicode="&#x490;" horiz-adv-x="989"
d="M420 0h-168v1438h600v221h131v-361h-563v-1298z" />
    <glyph glyph-name="afii10098" unicode="&#x491;" horiz-adv-x="763"
d="M330 0h-166v1024h473v262h137v-401h-444v-885z" />
    <glyph glyph-name="uni2000" unicode="&#x2000;" horiz-adv-x="919"
 />
    <glyph glyph-name="uni2001" unicode="&#x2001;" horiz-adv-x="1839"
 />
    <glyph glyph-name="uni2002" unicode="&#x2002;" horiz-adv-x="919"
 />
    <glyph glyph-name="uni2003" unicode="&#x2003;" horiz-adv-x="1839"
 />
    <glyph glyph-name="uni2004" unicode="&#x2004;" horiz-adv-x="613"
 />
    <glyph glyph-name="uni2005" unicode="&#x2005;" horiz-adv-x="459"
 />
    <glyph glyph-name="uni2006" unicode="&#x2006;" horiz-adv-x="306"
 />
    <glyph glyph-name="uni2007" unicode="&#x2007;" horiz-adv-x="306"
 />
    <glyph glyph-name="uni2008" unicode="&#x2008;" horiz-adv-x="229"
 />
    <glyph glyph-name="uni2009" unicode="&#x2009;" horiz-adv-x="367"
 />
    <glyph glyph-name="uni200A" unicode="&#x200a;" horiz-adv-x="102"
 />
    <glyph glyph-name="endash" unicode="&#x2013;" horiz-adv-x="1116"
d="M1036 500h-956v139h956v-139z" />
    <glyph glyph-name="emdash" unicode="&#x2014;" horiz-adv-x="1486"
d="M1407 500h-1327v139h1327v-139z" />
    <glyph glyph-name="quoteleft" unicode="&#x2018;" horiz-adv-x="366"
d="M256 1004l-137 -27q-35 93 -35 180q0 117 53 214q45 81 81 115l15 15l91 -78q-13 -13 -33 -45q-17 -26 -30 -54q-34 -74 -34 -163q0 -73 29 -157z" />
    <glyph glyph-name="quoteright" unicode="&#x2019;" horiz-adv-x="366"
d="M154 969l-91 78q14 14 34 47q11 17 29 55q34 76 34 162q0 71 -29 155l137 27q35 -90 35 -178q0 -119 -53 -214q-45 -82 -80 -117z" />
    <glyph glyph-name="quotesinglbase" unicode="&#x201a;" horiz-adv-x="366"
d="M154 -178l-91 78q14 14 34 46q14 24 29 56q34 76 34 162q0 71 -29 155l137 27q35 -90 35 -178q0 -118 -53 -215q-45 -81 -80 -116z" />
    <glyph glyph-name="quotedblleft" unicode="&#x201c;" horiz-adv-x="718"
d="M608 1004l-137 -27q-35 93 -35 180q0 117 53 214q43 77 81 115l16 15l90 -78q-13 -13 -33 -45q-18 -28 -29 -54q-34 -74 -34 -163q0 -79 28 -157zM256 1004l-137 -27q-35 93 -35 180q0 117 53 214q45 81 81 115l15 15l91 -78q-13 -13 -33 -45q-17 -26 -30 -54
q-34 -74 -34 -163q0 -73 29 -157z" />
    <glyph glyph-name="quotedblright" unicode="&#x201d;" horiz-adv-x="718"
d="M506 969l-90 78q14 14 34 47q11 17 29 55q33 78 33 162q0 71 -29 155l138 27q34 -84 34 -178q0 -119 -53 -214q-45 -82 -80 -117zM154 969l-91 78q14 14 34 47q11 17 29 55q34 76 34 162q0 71 -29 155l137 27q35 -90 35 -178q0 -119 -53 -214q-45 -82 -80 -117z" />
    <glyph glyph-name="quotedblbase" unicode="&#x201e;" horiz-adv-x="718"
d="M506 -178l-90 78q14 14 34 46q14 24 29 56q33 78 33 162q0 71 -29 155l138 27q34 -84 34 -178q0 -118 -53 -215q-45 -81 -80 -116zM154 -178l-91 78q14 14 34 46q14 24 29 56q34 76 34 162q0 71 -29 155l137 27q35 -90 35 -178q0 -118 -53 -215q-45 -81 -80 -116z" />
    <glyph glyph-name="bullet" unicode="&#x2022;" horiz-adv-x="702"
d="M150 614q0 98 73 162t176 64q104 0 175 -64q71 -65 71 -162q0 -96 -71 -161q-70 -64 -175 -64q-106 0 -177 64q-72 63 -72 161z" />
    <glyph glyph-name="ellipsis" unicode="&#x2026;" horiz-adv-x="1566"
d="M1206 6q-30 27 -30 70q0 42 30 69q31 25 74 25q41 0 72 -25q30 -27 30 -69q0 -43 -30 -70q-30 -24 -72 -24q-44 0 -74 24zM707 6q-31 28 -31 70q0 41 31 69q31 25 73 25q41 0 72 -25q31 -28 31 -69q0 -42 -31 -70q-30 -24 -72 -24q-43 0 -73 24zM209 6q-31 28 -31 70
q0 41 31 69q31 25 74 25q40 0 71 -25q31 -28 31 -69q0 -42 -31 -70q-30 -24 -71 -24q-44 0 -74 24z" />
    <glyph glyph-name="uni202F" unicode="&#x202f;" horiz-adv-x="367"
 />
    <glyph glyph-name="guilsinglleft" unicode="&#x2039;" horiz-adv-x="765"
d="M549 127l-377 385l379 375l96 -105l-274 -272l272 -277z" />
    <glyph glyph-name="guilsinglright" unicode="&#x203a;" horiz-adv-x="765"
d="M221 127l-96 102l274 273l-272 278l96 107l375 -387z" />
    <glyph glyph-name="uni205F" unicode="&#x205f;" horiz-adv-x="459"
 />
    <glyph glyph-name="Euro" unicode="&#x20ac;" horiz-adv-x="1478"
d="M285 496h-164v139h147q-2 36 -2 84q0 50 2 88h-147v139h166q48 251 210 383.5t433 132.5q91 0 193 -18q103 -18 157 -36l55 -17l-16 -131q-21 8 -57 18q-31 9 -129 28q-96 17 -166 17q-221 0 -348 -92.5t-168 -284.5h653v-139h-672q-2 -38 -2 -88q0 -48 2 -84h672v-139
h-653q40 -195 166.5 -288t349.5 -93q73 0 161 15q86 15 140 30l51 16l16 -129q-48 -16 -61 -20q-35 -12 -146 -34q-109 -20 -198 -20q-273 0 -435 134t-210 389z" />
    <glyph glyph-name="trademark" unicode="&#x2122;" horiz-adv-x="1890"
d="M926 553h-142v840l2 -4l183 4l301 -531h2l303 531h184v-840h-143v641l-273 -475h-145l-272 475v-641zM254 1278h-244v115h631v-115h-244v-725h-143v725z" />
    <glyph glyph-name="uni25FC" unicode="&#x25fc;" horiz-adv-x="1024"
d="M0 0v1024h1024v-1024h-1024z" />
    </font>
</defs>
</svg>
